<?xml version="1.0" encoding="UTF-8" standalone="no"?>
<!DOCTYPE svg PUBLIC "-//W3C//DTD SVG 1.0//EN"
 "http://www.w3.org/TR/2001/REC-SVG-20010904/DTD/svg10.dtd" [
 <!ATTLIST svg xmlns:xlink CDATA #FIXED "http://www.w3.org/1999/xlink">
]>
<!-- Generated by libgvc version 2.20.2 (Fri Dec &#160;5 03:27:26 UTC 2014)
     For user: (andreea) Ubi,,, -->
<!-- Title: debug Pages: 1 -->
<svg width="226pt" height="476pt"
 viewBox="0.00 0.00 226.00 476.00" xmlns="http://www.w3.org/2000/svg" xmlns:xlink="http://www.w3.org/1999/xlink">
<g id="graph0" class="graph" transform="scale(1 1) rotate(0) translate(4 472)">
<title>debug</title>
<polygon style="fill:white;stroke:white;" points="-4,4 -4,-472 222,-472 222,4 -4,4"/>
<!-- 0 -->
<g id="node1" class="node"><title>0</title>
<ellipse style="fill:none;stroke:black;" cx="105" cy="-450" rx="27" ry="18"/>
<text text-anchor="middle" x="105" y="-445.9" style="font-family:Times New Roman;font-size:14.00;">0</text>
</g>
<!-- 1 -->
<g id="node2" class="node"><title>1</title>
<ellipse style="fill:none;stroke:black;" cx="137" cy="-378" rx="27" ry="18"/>
<text text-anchor="middle" x="137" y="-373.9" style="font-family:Times New Roman;font-size:14.00;">1</text>
</g>
<!-- 0&#45;&gt;1 -->
<g id="edge1" class="edge"><title>0&#45;&gt;1</title>
<path style="fill:none;stroke:black;" d="M107,-432C110,-424 115,-413 119,-403"/>
<polygon style="fill:black;stroke:black;" points="122.203,-404.441 124,-394 116.084,-401.042 122.203,-404.441"/>
</g>
<!-- 2 -->
<g id="node3" class="node"><title>2</title>
<ellipse style="fill:none;stroke:black;" cx="73" cy="-234" rx="27" ry="18"/>
<text text-anchor="middle" x="73" y="-229.9" style="font-family:Times New Roman;font-size:14.00;">2</text>
</g>
<!-- 0&#45;&gt;2 -->
<g id="edge2" class="edge"><title>0&#45;&gt;2</title>
<path style="fill:none;stroke:black;" d="M98,-432C90,-395 76,-307 73,-262"/>
<polygon style="fill:black;stroke:black;" points="76.4778,-261.602 72,-252 69.5125,-262.299 76.4778,-261.602"/>
</g>
<!-- 4 -->
<g id="node5" class="node"><title>4</title>
<ellipse style="fill:none;stroke:black;" cx="149" cy="-18" rx="27" ry="18"/>
<text text-anchor="middle" x="149" y="-13.9" style="font-family:Times New Roman;font-size:14.00;">4</text>
</g>
<!-- 0&#45;&gt;4 -->
<g id="edge3" class="edge"><title>0&#45;&gt;4</title>
<path style="fill:none;stroke:black;" d="M121,-435C134,-425 152,-411 164,-396 189,-361 200,-349 200,-306 200,-306 200,-306 200,-162 200,-118 176,-73 161,-45"/>
<polygon style="fill:black;stroke:black;" points="163.916,-43.0418 156,-36 157.797,-46.4414 163.916,-43.0418"/>
</g>
<!-- 5 -->
<g id="node6" class="node"><title>5</title>
<ellipse style="fill:none;stroke:black;" cx="85" cy="-90" rx="27" ry="18"/>
<text text-anchor="middle" x="85" y="-85.9" style="font-family:Times New Roman;font-size:14.00;">5</text>
</g>
<!-- 0&#45;&gt;5 -->
<g id="edge4" class="edge"><title>0&#45;&gt;5</title>
<path style="fill:none;stroke:black;" d="M84,-438C53,-415 0,-363 0,-306 0,-306 0,-306 0,-234 0,-185 34,-137 60,-110"/>
<polygon style="fill:black;stroke:black;" points="62.4038,-112.546 67,-103 57.454,-107.596 62.4038,-112.546"/>
</g>
<!-- 1&#45;&gt;0 -->
<g id="edge5" class="edge"><title>1&#45;&gt;0</title>
<path style="fill:none;stroke:black;" d="M135,-396C132,-405 127,-416 123,-425"/>
<polygon style="fill:black;stroke:black;" points="119.797,-423.559 118,-434 125.916,-426.958 119.797,-423.559"/>
</g>
<!-- 3 -->
<g id="node4" class="node"><title>3</title>
<ellipse style="fill:none;stroke:black;" cx="137" cy="-306" rx="27" ry="18"/>
<text text-anchor="middle" x="137" y="-301.9" style="font-family:Times New Roman;font-size:14.00;">3</text>
</g>
<!-- 1&#45;&gt;3 -->
<g id="edge6" class="edge"><title>1&#45;&gt;3</title>
<path style="fill:none;stroke:black;" d="M131,-360C130,-352 130,-343 130,-334"/>
<polygon style="fill:black;stroke:black;" points="133.488,-334.299 131,-324 126.522,-333.602 133.488,-334.299"/>
</g>
<!-- 2&#45;&gt;0 -->
<g id="edge7" class="edge"><title>2&#45;&gt;0</title>
<path style="fill:none;stroke:black;" d="M79,-252C88,-289 102,-377 105,-422"/>
<polygon style="fill:black;stroke:black;" points="101.522,-422.398 106,-432 108.488,-421.701 101.522,-422.398"/>
</g>
<!-- 2&#45;&gt;3 -->
<g id="edge8" class="edge"><title>2&#45;&gt;3</title>
<path style="fill:none;stroke:black;" d="M91,-248C101,-258 112,-270 121,-281"/>
<polygon style="fill:black;stroke:black;" points="118.781,-283.779 128,-289 124.049,-279.169 118.781,-283.779"/>
</g>
<!-- 3&#45;&gt;1 -->
<g id="edge9" class="edge"><title>3&#45;&gt;1</title>
<path style="fill:none;stroke:black;" d="M143,-324C144,-332 144,-341 144,-350"/>
<polygon style="fill:black;stroke:black;" points="140.512,-349.701 143,-360 147.478,-350.398 140.512,-349.701"/>
</g>
<!-- 3&#45;&gt;2 -->
<g id="edge10" class="edge"><title>3&#45;&gt;2</title>
<path style="fill:none;stroke:black;" d="M119,-292C109,-282 98,-270 89,-259"/>
<polygon style="fill:black;stroke:black;" points="91.8,-256.9 83,-251 86.2,-261.1 91.8,-256.9"/>
</g>
<!-- 7 -->
<g id="node8" class="node"><title>7</title>
<ellipse style="fill:none;stroke:black;" cx="145" cy="-234" rx="27" ry="18"/>
<text text-anchor="middle" x="145" y="-229.9" style="font-family:Times New Roman;font-size:14.00;">7</text>
</g>
<!-- 3&#45;&gt;7 -->
<g id="edge11" class="edge"><title>3&#45;&gt;7</title>
<path style="fill:none;stroke:black;" d="M127,-289C126,-280 127,-270 129,-260"/>
<polygon style="fill:black;stroke:black;" points="132.479,-260.584 132,-250 125.774,-258.573 132.479,-260.584"/>
</g>
<!-- 3&#45;&gt;7 -->
<g id="edge23" class="edge"><title>3&#45;&gt;7</title>
<path style="fill:none;stroke:deeppink;" d="M150,-290C153,-282 155,-271 155,-261"/>
<polygon style="fill:deeppink;stroke:deeppink;" points="158.5,-261 155,-251 151.5,-261 158.5,-261"/>
</g>
<!-- 4&#45;&gt;0 -->
<g id="edge12" class="edge"><title>4&#45;&gt;0</title>
<path style="fill:none;stroke:black;" d="M165,-33C186,-58 218,-111 218,-162 218,-306 218,-306 218,-306 218,-349 207,-361 182,-396 169,-411 152,-425 137,-435"/>
<polygon style="fill:black;stroke:black;" points="135.042,-432.084 128,-440 138.441,-438.203 135.042,-432.084"/>
</g>
<!-- 4&#45;&gt;5 -->
<g id="edge13" class="edge"><title>4&#45;&gt;5</title>
<path style="fill:none;stroke:black;" d="M139,-35C132,-45 121,-58 110,-69"/>
<polygon style="fill:black;stroke:black;" points="107.596,-66.454 103,-76 112.546,-71.4038 107.596,-66.454"/>
</g>
<!-- 4&#45;&gt;7 -->
<g id="edge14" class="edge"><title>4&#45;&gt;7</title>
<path style="fill:none;stroke:black;" d="M152,-36C155,-74 154,-161 150,-206"/>
<polygon style="fill:black;stroke:black;" points="146.512,-205.701 149,-216 153.478,-206.398 146.512,-205.701"/>
</g>
<!-- 5&#45;&gt;0 -->
<g id="edge15" class="edge"><title>5&#45;&gt;0</title>
<path style="fill:none;stroke:black;" d="M75,-107C56,-132 18,-183 18,-234 18,-306 18,-306 18,-306 18,-355 58,-401 84,-427"/>
<polygon style="fill:black;stroke:black;" points="81.454,-429.404 91,-434 86.4038,-424.454 81.454,-429.404"/>
</g>
<!-- 5&#45;&gt;4 -->
<g id="edge16" class="edge"><title>5&#45;&gt;4</title>
<path style="fill:none;stroke:black;" d="M94,-73C102,-63 114,-50 124,-39"/>
<polygon style="fill:black;stroke:black;" points="126.404,-41.546 131,-32 121.454,-36.5962 126.404,-41.546"/>
</g>
<!-- 6 -->
<g id="node7" class="node"><title>6</title>
<ellipse style="fill:none;stroke:black;" cx="85" cy="-162" rx="27" ry="18"/>
<text text-anchor="middle" x="85" y="-157.9" style="font-family:Times New Roman;font-size:14.00;">6</text>
</g>
<!-- 5&#45;&gt;6 -->
<g id="edge17" class="edge"><title>5&#45;&gt;6</title>
<path style="fill:none;stroke:black;" d="M91,-108C92,-116 92,-125 92,-134"/>
<polygon style="fill:black;stroke:black;" points="88.5125,-133.701 91,-144 95.4778,-134.398 88.5125,-133.701"/>
</g>
<!-- 6&#45;&gt;5 -->
<g id="edge18" class="edge"><title>6&#45;&gt;5</title>
<path style="fill:none;stroke:black;" d="M79,-144C78,-136 78,-127 78,-118"/>
<polygon style="fill:black;stroke:black;" points="81.4875,-118.299 79,-108 74.5222,-117.602 81.4875,-118.299"/>
</g>
<!-- 6&#45;&gt;7 -->
<g id="edge19" class="edge"><title>6&#45;&gt;7</title>
<path style="fill:none;stroke:black;" d="M102,-176C112,-186 122,-198 130,-209"/>
<polygon style="fill:black;stroke:black;" points="127.2,-211.1 136,-217 132.8,-206.9 127.2,-211.1"/>
</g>
<!-- 7&#45;&gt;3 -->
<g id="edge20" class="edge"><title>7&#45;&gt;3</title>
<path style="fill:none;stroke:black;" d="M143,-252C142,-260 141,-269 140,-278"/>
<polygon style="fill:black;stroke:black;" points="136.512,-277.701 139,-288 143.478,-278.398 136.512,-277.701"/>
</g>
<!-- 7&#45;&gt;4 -->
<g id="edge21" class="edge"><title>7&#45;&gt;4</title>
<path style="fill:none;stroke:black;" d="M141,-216C139,-178 141,-91 144,-46"/>
<polygon style="fill:black;stroke:black;" points="147.488,-46.2987 145,-36 140.522,-45.6021 147.488,-46.2987"/>
</g>
<!-- 7&#45;&gt;6 -->
<g id="edge22" class="edge"><title>7&#45;&gt;6</title>
<path style="fill:none;stroke:black;" d="M128,-220C118,-210 108,-198 100,-187"/>
<polygon style="fill:black;stroke:black;" points="102.8,-184.9 94,-179 97.2,-189.1 102.8,-184.9"/>
</g>
</g>
</svg>
